<svg id="Capa_1" data-name="Capa 1" xmlns="http://www.w3.org/2000/svg" viewBox="0 0 1254.89 166.25"><defs><style>.cls-1{fill:#fff;}</style></defs><title>lightning</title><path class="cls-1" d="M1273.39,444.15c-6.95,7.31-13.3,12.59-22.18,14.41-20.92,4.28-41.78,8.87-62.7,13.21q-117.77,24.42-235.57,48.73c-58.72,12.09-117.49,23.94-176.2,36.09-12,2.49-23.75,1.4-35.55-.24-.18-8.84,3.05-22.17,8.7-33.72,4.89-10,10.34-19.75,16.28-31-14.13,2.09-26,6.7-38.16,9.86s-24.5,7-36.75,10.47c-11.89,3.38-23.8,6.71-35.7,10.07q-18.39,5.2-36.76,10.44c-12.25,3.49-24.49,7-36.74,10.52s-24.54,6.86-36.8,10.33-24.49,7-36.75,10.5q-17.84,5.08-35.69,10.1l-36.77,10.41c-12.14,3.44-24.21,7.17-37.33,10.35-.43-7.14,2.7-12.44,4.34-18a178.38,178.38,0,0,1,6.39-18c2.3-5.52,5.19-10.8,7.82-16.19s6.25-10.11,7.87-16.25c-4.62-1.34-8.71-.57-12.68-.07q-27.34,3.38-54.63,7.18c-29.32,4.12-58.61,8.41-87.92,12.63q-43.4,6.26-86.8,12.53-42.86,6.11-85.74,12.05c-13.36,1.87-26.82,3.19-40.08,5.61s-26,.12-38.56-3.12c-1-2.88,1.16-3.56,2.43-4.59,3.2-2.59,6.52-5,9.83-7.51a50.13,50.13,0,0,1,19.3-8.68c61.75-14,123.43-28.35,185.19-42.31,78.58-17.76,157.23-35.16,235.8-53a79.28,79.28,0,0,1,32-.69c1.12,8.54-.42,21-4.5,30.95-3.82,9.3-8.31,18.33-13,28.56,2.81-.24,4.55-.13,6.16-.55q76.13-19.88,152.23-39.87,75-19.73,150-39.59a71.12,71.12,0,0,0,7.57-2.12c16.23-6.28,33.1-5.55,50-4.69.66,0,1.29.61,2.37,1.15-1.76,10.65-5.84,20.66-10.18,30.57-4.18,9.54-10.9,17.79-15.32,28.58,9.11-1,17.22-1.72,25.29-2.71q32.93-4,65.83-8.24,37.92-4.87,75.82-9.91,39-5.14,78-10.36,38.45-5.12,76.91-10.24,37.9-5,75.81-10c2.23-.29,4.57-.22,6.68-.88,11.47-3.57,22.22-1.2,32.72,3.65Z" transform="translate(-18.49 -428.41)"/><path class="cls-1" d="M1127.71,528.39c-1.64-1.94-3.59-3.44-4.43-5.42-1.94-4.55.95-9.34,6.32-10.71,2.13-.54,4.44-.38,6.66-.59,1.36-.13,2.72-.31,4.07-.53s2.39-.5,3.54-.75c1.32,3.06,1.32,3.06-2,4.93.19.58.41,1.18.58,1.79,1.25,4.32-1.27,8.61-6,10.14-1,.33-2.17.38-3.17.79a10.1,10.1,0,0,0-2,1.49c.79.43,1.61,1.25,2.38,1.21,2.46-.14,4.89-.64,7.34-.92,3-.34,5.75-.08,7.35,2.93,1.37,2.57.7,5.87-1.57,8.48-3.5,4-12,6.14-16.93,4.25-4.35-1.66-4.94-5.52-1.41-9.26C1125.26,533.09,1125.18,531.29,1127.71,528.39Zm8.34,7.29v.18c-.86.11-1.91,0-2.53.4a4.34,4.34,0,0,0-1.87,2.54,2.88,2.88,0,0,0,1.62,2.33,10.89,10.89,0,0,0,9-2,2.84,2.84,0,0,0,.7-2.47,2.53,2.53,0,0,0-2-1.27A39,39,0,0,0,1136,535.67Zm-2.37-11.92c2.57-.55,3.79-2.34,3.22-4.75s-2.31-3.32-4.85-2.79-3.72,2.19-3.27,4.53S1131.12,524.3,1133.67,523.75Z" transform="translate(-18.49 -428.41)"/><path class="cls-1" d="M1193.48,519.38c-3.91,8-15.61,11.17-23.6,6.61-8.59-4.91-11.76-18.28-6.32-26.7,5-7.71,17-10.43,23.91-5.3-.17.43-.33.9-.52,1.36-1.55,3.61-1.55,3.61-5.36,2.57-7.14-1.95-13.43,2.71-13.34,10.1a19.3,19.3,0,0,0,1.34,6.78c3.21,8,12.43,9.51,18.17,3,1-1.1,1.79-1.31,2.94-.4C1191.55,518.09,1192.47,518.68,1193.48,519.38Z" transform="translate(-18.49 -428.41)"/><path class="cls-1" d="M990.85,563.13c-4.08,7.92-15.49,11-23.47,6.61-8.47-4.71-11.83-17.79-6.75-26.27,4.82-8,16.4-10.94,24.25-5.88a15.66,15.66,0,0,1-1.76,3.81c-.48.59-1.84.66-2.79.63-2.35-.07-4.79-.82-7-.42a8.8,8.8,0,0,0-7.5,7.77A15.55,15.55,0,0,0,968.31,561a10.57,10.57,0,0,0,16.17,1.28c2.13-2.21,2.13-2.22,4.71-.41C989.72,562.27,990.23,562.66,990.85,563.13Z" transform="translate(-18.49 -428.41)"/><path class="cls-1" d="M1063.79,552.65l-6.31,1.36-7.69-35.67L1056,517l2.84,13.16a39.14,39.14,0,0,1,3.22-2.73c5.12-3.44,11.07-1.63,13.11,4.18a86.84,86.84,0,0,1,2.3,9.53c.61,2.68,1.16,5.36,1.76,8.16l-6.46,1.39-.48-2.24c-1-4.41-1.88-8.82-2.88-13.22-.42-1.83-1.14-3.53-3.31-3.87a6.37,6.37,0,0,0-5.71,3,3.55,3.55,0,0,0-.08,2.07c1,4.63,2,9.25,3,13.87Z" transform="translate(-18.49 -428.41)"/><path class="cls-1" d="M1219.71,506.25c1.62,7.71-2.24,13.78-9.74,15.34s-13.45-2.49-15.11-10.17,2.22-13.84,9.88-15.44C1212.22,494.41,1218.07,498.43,1219.71,506.25Zm-6.57,1.38a36.58,36.58,0,0,0-1.4-3.7,5.08,5.08,0,0,0-6.09-3c-2.82.59-4.54,2.38-4.36,5.38a24.81,24.81,0,0,0,1.62,7.35c1,2.7,3.24,3.55,6,3s4.26-2.18,4.41-5.12A35.81,35.81,0,0,0,1213.14,507.63Z" transform="translate(-18.49 -428.41)"/><path class="cls-1" d="M1030.3,547c1.65,7.76-2.11,13.81-9.6,15.43s-13.65-2.5-15.26-10.25,2.27-13.71,9.8-15.32S1028.65,539.2,1030.3,547Zm-6.52,1.47a37.83,37.83,0,0,0-1.53-3.88,5,5,0,0,0-6-2.81c-2.74.58-4.53,2.33-4.35,5.16a26.81,26.81,0,0,0,1.71,7.76c1,2.55,3.21,3.34,5.93,2.77s4.21-2.12,4.39-4.9A36.89,36.89,0,0,0,1023.78,548.44Z" transform="translate(-18.49 -428.41)"/><path class="cls-1" d="M1120.76,540.4l-6.18,1.33c-.2-.76-.43-1.48-.6-2.23-.95-4.34-1.86-8.68-2.82-13-.42-1.91-1-3.73-3.32-4.11a6.3,6.3,0,0,0-5.72,2.95,3.83,3.83,0,0,0-.09,2.27c.93,4.56,1.94,9.11,2.92,13.66l.52,2.4-6.29,1.36-5.26-24.39c4-1.74,4.66-1.64,6.37.83a33.63,33.63,0,0,1,4.37-3.46c5-2.79,10.57-.86,12.15,4.59C1118.49,528.34,1119.45,534.32,1120.76,540.4Z" transform="translate(-18.49 -428.41)"/><path class="cls-1" d="M1053.33,553.72c-2.58,1.18-4.68,2.55-7,3.09-4.06,1-7-1.17-8-5.42s-1.92-8.8-2.89-13.32a9.84,9.84,0,0,0-1.55.12c-1.36.34-2.19,0-2.58-1.49s-.29-2.4,1.36-2.75a2.3,2.3,0,0,0,2.06-2.94,12.23,12.23,0,0,1,0-2c0-4.13.14-4.31,4.61-4.47l1.53,7.09,6.28-1.35,1,4.72-6.16,1.33c1,4.71,1.91,9.24,3.06,13.7.14.55,2.21,1.27,2.54,1,2-1.76,2.94-.33,4.07.91Z" transform="translate(-18.49 -428.41)"/><path class="cls-1" d="M988.72,531.46l6.23-1.34,7.69,35.66-6.23,1.34Z" transform="translate(-18.49 -428.41)"/><path class="cls-1" d="M1092.07,546.55l-6.22,1.34-5.28-24.51,6.22-1.34Z" transform="translate(-18.49 -428.41)"/><path class="cls-1" d="M1086.14,514.45a4.13,4.13,0,1,1-5-3A4.08,4.08,0,0,1,1086.14,514.45Z" transform="translate(-18.49 -428.41)"/><path class="cls-1" d="M1233.67,512.4a3.91,3.91,0,0,1-2.88,4.69,4,4,0,0,1-4.81-3,3.92,3.92,0,0,1,3-4.56A3.82,3.82,0,0,1,1233.67,512.4Z" transform="translate(-18.49 -428.41)"/></svg>